<svg xmlns="http://www.w3.org/2000/svg" width="370" height="225" fill="none"><path fill="#30140C" d="m180.157 0 13.56.97c7.458.524 19.236 2.715 26.152 4.849 6.916 2.134 19.139 8.244 27.121 13.578 9.589 6.4 17.822 13.985 24.214 22.306l9.686 12.607 12.592-.97c6.915-.543 22.18-.97 33.9-.97 11.72 0 23.924.873 27.121 1.94 3.196 1.067 7.981 3.686 10.654 5.82 3.719 2.967 4.843 5.682 4.843 11.637 0 5.82-1.453 9.466-5.812 14.548-3.196 3.724-10.615 9.853-16.465 13.577-5.851 3.724-19.372 10.727-30.027 15.517-10.654 4.791-19.817 9.156-20.34 9.699-.523.543-2.286 7.08-3.874 14.547-1.589 7.468-5.947 19.261-9.686 26.186-3.739 6.924-9.822 16.099-13.56 20.366-3.739 4.267-11.139 11.25-16.466 15.517-5.328 4.267-14.045 9.931-19.372 12.608-5.327 2.677-14.045 6.168-19.372 7.759-5.656 1.706-17.318 2.909-28.089 2.909-14.471 0-21.522-1.047-32.932-4.849-7.981-2.677-19.313-7.895-25.183-11.638-5.87-3.744-15.013-11.58-20.34-17.457l-9.686-10.668-14.529 1.94c-7.981 1.066-24.563 2.366-36.806 2.909-12.263.543-25.765.097-30.026-.97-4.262-1.067-9.919-4.112-12.592-6.789C1.82 174.453 0 170.438 0 166.81c0-3.2 1.743-8.437 3.874-11.638 2.131-3.2 7.362-8.437 11.623-11.638 4.262-3.2 14.723-9.31 23.246-13.577 8.524-4.267 20.283-9.504 26.152-11.638l10.655-3.879.968-12.608c.543-6.944 2.712-17.845 4.843-24.246 2.131-6.4 6.916-16.875 10.655-23.276 3.738-6.4 12.456-16.875 19.371-23.276 6.916-6.4 16.525-13.81 21.309-16.487 4.785-2.676 13.076-6.148 18.403-7.758 5.328-1.61 14.045-3.783 29.058-6.789Z"/><path fill="#FEB667" d="M246 35.31c-11.993 8.98-22.439 14.193-30.951 17.38-8.511 3.186-23.755 7.956-33.852 10.62-10.098 2.665-26.212 5.697-35.787 6.759L128 72v-2.897c0-1.602 2.611-8.979 11.607-29.93l2.901-1.932c1.586-1.062 5.513-2.8 8.705-3.862 3.192-1.062 11.897-4.538 19.344-7.724 7.448-3.186 13.541-6.662 13.541-9.655 13.483 0 22.188 1.294 28.05 2.897 5.861 1.602 15.862 5.947 22.245 9.655L246 35.31Z"/><path fill="#CE341C" d="M184 16c0 2.97-6.083 6.42-13.517 9.583-7.435 3.163-16.124 6.613-19.311 7.667-3.186 1.054-7.106 2.78-8.689 3.833L139.586 39h-4.827c-2.665 0-5.253-.422-6.759-1.917l11.586-7.666c6.373-4.217 15.931-8.951 21.242-10.542C166.138 17.285 173.514 16 184 16Z"/><path fill="#D42F14" d="M246.182 35c1.513 0 2.812 1.292 3.879 2.893L252 40.786c-24.048 13.442-38.012 20.404-46.545 24.107-8.534 3.703-23.37 9.353-32.97 12.536-9.6 3.182-24.437 7.077-32.97 8.678L124 89l1.939-7.714c1.067-4.243 1.513-8.139 0-9.643h1.94l17.454-1.929c9.6-1.06 25.755-4.088 35.879-6.75 10.124-2.661 25.406-7.425 33.94-10.607 8.533-3.182 19.006-8.39 31.03-17.357Z"/><path fill="#CF754B" d="M128.3 37c1.521 1.517 4.134 1.944 6.825 1.944H140c-9.067 21.098-11.7 28.525-11.7 30.14V72h-13.65c-6.435 0-12.129-.428-13.65-1.944l5.85-10.695c3.218-5.892 9.36-13.32 21.45-22.361Z"/><path fill="#FEB769" d="M251.872 41c4.484 2.984 9.722 9.914 14.497 17.325 4.774 7.411 9.123 15.631 9.665 18.287l.966 4.813c-37.461 13.417-53.988 19.057-60.888 21.175-6.901 2.117-21.263 5.582-31.894 7.7-10.631 2.117-28.453 4.716-39.626 5.775L124.296 118l-.966-1.925c-.542-1.059-.542-7.546.966-26.95l15.464-2.888c8.505-1.597 23.292-5.486 32.86-8.662 9.568-3.176 24.355-8.817 32.86-12.513 8.505-3.695 22.423-10.645 46.392-24.062Z"/><path fill="#D7B79D" d="m189.871 146-.968-3.909c-.542-2.15-1.393-5.219-2.903-9.773l26.127-5.863c14.379-3.225 42.673-11.571 62.897-18.569 20.224-6.997 38.512-14.463 44.511-20.522l2.903.977c1.587.547 3.774.098 6.774-2.932l3.871-.977c2.128-.547 5.186-3.616 6.773-6.841 2.787-5.61 2.69-5.981-6.773-11.727-14.999-3.03-25.45-3.48-32.9-2.932-9.038.645-12.909.332-11.612-.977C289.635 60.88 300.512 60 312.762 60c12.231 0 27.055.88 32.9 1.955 5.845 1.075 11.96 3.264 13.547 4.886 2.574 2.6 2.477 3.577-.968 8.795-2.128 3.225-9.095 9.832-15.482 14.66-6.386 4.827-18.153 11.434-26.126 14.659-7.974 3.225-29.765 11.14-48.383 17.59-18.617 6.45-43.892 14.366-56.123 17.591L189.871 146Z"/><path fill="#921613" d="M100.77 70c1.516 1.49 7.188 1.91 13.598 1.91h11.656c1.515 1.488 1.068 5.344 0 9.544l-1.943 7.637C113.533 90.58 106.54 91 101.742 91H93l2.914-10.5c1.593-5.784 3.341-10.5 4.856-10.5Z"/><path fill="#E83C1C" d="M277.122 81c3.005 4.58 3.878 8.098 3.878 10.81 0 4.639-1.551 5.366-27.146 12.776-14.931 4.324-37.191 10.516-49.445 13.759-12.255 3.243-34.961 9.002-50.415 12.776L125.878 138l-1.939-1.966c-1.066-1.081-1.939-5.503-1.939-17.689h1.939l20.36-1.966c11.207-1.081 29.085-3.734 39.75-5.896 10.664-2.162 25.071-5.7 31.994-7.862 6.922-2.162 23.501-7.921 61.079-21.621Z"/><path fill="#D57649" d="M124 89c-1.517 19.488-1.517 26.003-.972 27.067L124 118h-17.5c-8.556 0-15.983-.425-17.5-1.933l.972-12.567c.545-6.921 1.4-12.567 2.917-12.567h8.75c4.803 0 11.803-.425 22.361-1.933Z"/><path fill="#A3201D" d="M89 117c1.519 1.455 8.958 1.865 17.526 1.865h15.579c0 11.566.877 15.764 1.948 16.79L126 137.52l-15.579 2.798c-10.379 1.866-16.222 2.183-17.526.933-1.071-1.026-2.376-6.902-3.895-24.251Z"/><path fill="#C29670" d="M186.127 132c1.51 4.54 2.363 7.599 2.905 9.742l.968 3.897-29.048 7.794c-15.976 4.286-39.931 9.976-53.254 12.665-13.323 2.688-34.664 6.196-47.445 7.793-12.78 1.598-28.021 2.494-33.889 1.949-7.107-.643-11.948-2.28-14.524-4.871-3.137-3.157-3.505-4.832-1.936-8.768 1.065-2.689 3.234-5.3 4.841-5.846 1.607-.545 3.33-.545 3.873 0 .542.546 1.84 2.3 2.905 3.897 1.065 1.598 5.422 3.8 9.683 4.871 5.17 1.306 12.587 1.306 22.27 0 7.978-1.071 18.454-2.825 23.238-3.896 4.783-1.072 8.288-2.826 7.746-3.897-.562-1.13 6.003-3.196 15.492-4.871 9.063-1.598 32.146-6.878 86.175-20.459Z"/><path fill="#9B1F1C" d="M277.131 145.647c-7.505 0-15.765 2.134-23.213 4.764-7.448 2.629-20.505 8.193-29.016 12.385-8.512 4.192-15.901 7.622-16.443 7.622-.542 0-.967-.857-.967-1.905s-1.741-2.325-3.869-2.859l-3.869-.952c-26.269 6.459-31.821 7.05-33.852 5.716L163 168.513l8.705-2.859c4.778-1.562 26.54-8.002 48.361-14.29 21.82-6.288 42.692-12.71 46.426-14.291 3.733-1.582 8.511-3.278 10.639-3.811 2.902-.724 3.869 0 3.869 2.858 0 2.096-.87 5.087-3.869 9.527Z"/><path fill="#251009" d="M50.418 147.516c-1.5 0-1.923 1.291-1.923 2.889v2.89l1.923 3.852c1.788 3.564 1.288 3.853-6.731 3.853-5.981 0-8.943-.886-9.616-2.889-.539-1.599 2.058-6.338 5.77-10.595 3.711-4.238 9.327-8.996 12.5-10.595 5.135-2.561 5.981-2.561 7.693 0 1.288 1.927 1.288 2.562 0 1.927-1.058-.54-1.5-.097-.962.963.538 1.059.096 1.502-.962.963-1.057-.539-1.5-.096-.961.963.538 1.06-.346 2.793-1.923 3.853-1.923 1.29-3.212 1.29-3.847 0-.634-1.291-.961-1.291-.961 1.926Z"/><path fill="#FCF9F5" d="m73.817 140 2.955.919c1.615.514 3.387 2.976 3.939 5.512.866 4.079.118 4.795-6.894 6.431-4.333 1.01-8.764 1.433-9.847.918-1.084-.514-1.97-1.745-1.97-2.756 0-1.01 2.659-3.895 11.817-11.024Z"/><path fill="#D0623A" d="M277 146c0 4.49-2.176 8.845-4.857 12.581l-4.857 6.774c-4.508-1.51-10.628-.194-16.515 1.935-5.886 2.129-22.925 9.097-37.885 15.484-14.96 6.387-33.767 14.226-41.772 17.42L156.543 206l-3.886-.968c-2.137-.542-5.207-1.838-9.714-4.838v-.968c0-.542-.428-.968-1.943-.968l3.886-3.871c2.137-2.129 4.313-3.445 4.857-2.903.544.542 5.77-.774 11.657-2.903 5.887-2.129 17.253-7.355 25.257-11.613 8.005-4.258 14.144-8.613 12.629-11.613l3.885.968c2.138.542 3.886 1.838 3.886 2.903 0 1.064.428 1.935.972 1.935s7.965-3.484 16.514-7.742c8.548-4.258 21.663-9.909 29.143-12.58C261.166 148.168 269.462 146 277 146Z"/><path fill="#60433C" d="M50 147c0 4.64-.44 6-1 6h-1v-3c0-1.66.44-3 2-3Z"/><path fill="#A6201D" d="M267 164.649c-1.505 5.987-7.584 12.939-14.474 19.313-6.889 6.373-16.886 13.751-22.193 16.416-5.307 2.665-14.859 6.141-21.228 7.725-6.368 1.584-16.789 2.897-23.158 2.897-6.368 0-15.496-1.313-20.263-2.897L157 205.206l14.474-5.794c7.951-3.186 26.631-11.008 41.491-17.382 14.86-6.373 31.784-13.326 37.631-15.45 5.848-2.124 11.927-3.438 16.404-1.931Z"/><path fill="#CC603F" d="M199.769 165c1.514 3.014-4.617 7.389-12.61 11.667-7.993 4.277-19.342 9.527-25.221 11.666-5.878 2.139-11.097 3.461-11.64 2.917-.543-.544-2.716.778-4.85 2.917l-3.88 3.889c1.513 0 1.94.427 1.94.972V200h-.97c-.544 0-.97-.428-.97-1.944l-3.88-.973c-2.134-.544-7.819-4.919-12.611-9.722-8.614-8.633-8.672-8.769-3.88-9.722 2.677-.545 13.154-2.722 41.711-8.75l2.91 1.944c2.037 1.361 7.605.759 33.951-5.833Z"/></svg>
