<svg xmlns="http://www.w3.org/2000/svg" version="1.1" xmlns:xlink="http://www.w3.org/1999/xlink" xmlns:svgjs="http://svgjs.dev/svgjs" width="380" height="380"><svg width="380" height="380" viewBox="0 0 380 380" fill="none" xmlns="http://www.w3.org/2000/svg">
<path d="M185.157 78L198.717 78.9698C206.175 79.4935 217.953 81.6853 224.869 83.819C231.785 85.9526 244.008 92.0625 251.99 97.3966C261.579 103.797 269.812 111.381 276.204 119.703L285.89 132.31L298.482 131.341C305.397 130.797 320.662 130.371 332.382 130.371C344.102 130.371 356.306 131.244 359.503 132.31C362.699 133.377 367.484 135.996 370.157 138.129C373.876 141.097 375 143.812 375 149.767C375 155.586 373.547 159.233 369.188 164.315C365.992 168.039 358.573 174.168 352.723 177.892C346.872 181.616 333.351 188.619 322.696 193.409C312.042 198.2 302.879 202.565 302.356 203.108C301.833 203.651 300.07 210.188 298.482 217.655C296.893 225.123 292.535 236.916 288.796 243.841C285.057 250.765 278.974 259.94 275.236 264.207C271.497 268.474 264.097 275.457 258.77 279.724C253.442 283.991 244.725 289.655 239.398 292.332C234.071 295.009 225.353 298.5 220.026 300.091C214.37 301.797 202.708 303 191.937 303C177.466 303 170.415 301.953 159.005 298.151C151.024 295.474 139.692 290.256 133.822 286.513C127.952 282.769 118.809 274.933 113.482 269.056L103.796 258.388L89.267 260.328C81.2859 261.394 64.7037 262.694 52.4607 263.237C40.1984 263.78 26.6963 263.334 22.4346 262.267C18.1728 261.2 12.5162 258.155 9.84293 255.478C6.82094 252.453 5 248.438 5 244.81C5 241.61 6.74346 236.373 8.87435 233.172C11.0052 229.972 16.2356 224.735 20.4974 221.534C24.7592 218.334 35.2199 212.224 43.7435 207.957C52.267 203.69 64.0257 198.453 69.8953 196.319L80.5497 192.44L81.5183 179.832C82.0607 172.888 84.2304 161.987 86.3613 155.586C88.4921 149.185 93.277 138.711 97.0157 132.31C100.754 125.909 109.472 115.435 116.387 109.034C123.303 102.634 132.912 95.2241 137.696 92.5474C142.481 89.8707 150.772 86.3987 156.099 84.7888C161.427 83.1789 170.144 81.0065 185.157 78Z" fill="#30140C"></path>
<path d="M251 113.31C239.007 122.29 228.561 127.503 220.049 130.69C211.538 133.876 196.294 138.646 186.197 141.31C176.099 143.975 159.985 147.007 150.41 148.069L133 150V147.103C133 145.501 135.611 138.124 144.607 117.172L147.508 115.241C149.094 114.179 153.021 112.441 156.213 111.379C159.405 110.317 168.11 106.841 175.557 103.655C183.005 100.469 189.098 96.9931 189.098 94C202.581 94 211.286 95.2938 217.148 96.8966C223.009 98.4993 233.01 102.844 239.393 106.552L251 113.31Z" fill="#FEB667"></path>
<path d="M189 94C189 96.9708 182.917 100.421 175.483 103.583C168.048 106.746 159.359 110.196 156.172 111.25C152.986 112.304 149.066 114.029 147.483 115.083L144.586 117H139.759C137.094 117 134.506 116.578 133 115.083L144.586 107.417C150.959 103.2 160.517 98.4658 165.828 96.875C171.138 95.2842 178.514 94 189 94Z" fill="#CE341C"></path>
<path d="M251.182 113C252.695 113 253.994 114.292 255.061 115.893L257 118.786C232.952 132.228 218.988 139.19 210.455 142.893C201.921 146.596 187.085 152.246 177.485 155.429C167.885 158.611 153.048 162.506 144.515 164.107L129 167L130.939 159.286C132.006 155.043 132.452 151.147 130.939 149.643H132.879L150.333 147.714C159.933 146.654 176.088 143.626 186.212 140.964C196.336 138.303 211.618 133.539 220.152 130.357C228.685 127.175 239.158 121.968 251.182 113Z" fill="#D42F14"></path>
<path d="M133.3 115C134.821 116.517 137.434 116.944 140.125 116.944H145C135.933 138.042 133.3 145.469 133.3 147.083V150H119.65C113.215 150 107.521 149.572 106 148.056L111.85 137.361C115.068 131.469 121.21 124.042 133.3 115Z" fill="#CF754B"></path>
<path d="M256.872 119C261.356 121.984 266.594 128.914 271.369 136.325C276.143 143.736 280.492 151.956 281.034 154.612L282 159.425C244.539 172.842 228.012 178.482 221.112 180.6C214.211 182.717 199.849 186.182 189.218 188.3C178.587 190.417 160.765 193.016 149.592 194.075L129.296 196L128.33 194.075C127.788 193.016 127.788 186.529 129.296 167.125L144.76 164.237C153.265 162.64 168.052 158.751 177.62 155.575C187.188 152.399 201.975 146.758 210.48 143.062C218.985 139.366 232.903 132.417 256.872 119Z" fill="#FEB769"></path>
<path d="M194.871 224L193.903 220.091C193.361 217.941 192.51 214.872 191 210.318L217.127 204.455C231.506 201.23 259.8 192.884 280.024 185.886C300.248 178.889 318.536 171.423 324.535 165.364L327.438 166.341C329.025 166.888 331.212 166.439 334.212 163.409L338.083 162.432C340.211 161.885 343.269 158.816 344.856 155.591C347.643 149.981 347.546 149.61 338.083 143.864C323.084 140.834 312.633 140.385 305.183 140.932C296.145 141.577 292.274 141.264 293.571 139.955C294.635 138.88 305.512 138 317.762 138C329.993 138 344.817 138.88 350.662 139.955C356.507 141.03 362.622 143.219 364.209 144.841C366.783 147.44 366.686 148.418 363.241 153.636C361.113 156.861 354.146 163.468 347.759 168.295C341.373 173.123 329.606 179.73 321.633 182.955C313.659 186.18 291.868 194.095 273.25 200.545C254.633 206.995 229.358 214.911 217.127 218.136L194.871 224Z" fill="#D7B79D"></path>
<path d="M105.77 148C107.286 149.489 112.958 149.909 119.368 149.909H131.024C132.539 151.398 132.092 155.255 131.024 159.455L129.081 167.091C118.533 168.58 111.54 169 106.742 169H98L100.914 158.5C102.507 152.715 104.255 148 105.77 148Z" fill="#921613"></path>
<path d="M282.122 159C285.127 163.58 286 167.098 286 169.81C286 174.449 284.449 175.176 258.854 182.586C243.923 186.91 221.663 193.102 209.409 196.345C197.154 199.588 174.448 205.347 158.994 209.121L130.878 216L128.939 214.034C127.873 212.953 127 208.531 127 196.345H128.939L149.299 194.379C160.506 193.298 178.384 190.645 189.049 188.483C199.713 186.321 214.12 182.783 221.043 180.621C227.965 178.459 244.544 172.7 282.122 159Z" fill="#E83C1C"></path>
<path d="M129 167C127.483 186.488 127.483 193.003 128.028 194.067L129 196H111.5C102.944 196 95.5167 195.575 94 194.067L94.9722 181.5C95.5167 174.579 96.3722 168.933 97.8889 168.933H106.639C111.442 168.933 118.442 168.508 129 167Z" fill="#D57649"></path>
<path d="M94 195C95.5189 196.455 102.958 196.865 111.526 196.865H127.105C127.105 208.431 127.982 212.629 129.053 213.655L131 215.52L115.421 218.318C105.042 220.184 99.1995 220.501 97.8947 219.251C96.8237 218.225 95.5189 212.349 94 195Z" fill="#A3201D"></path>
<path d="M191.127 210C192.637 214.54 193.49 217.599 194.032 219.742L195 223.639L165.952 231.433C149.976 235.719 126.021 241.409 112.698 244.098C99.3747 246.786 78.0343 250.294 65.2533 251.891C52.4722 253.489 37.2318 254.385 31.3642 253.84C24.2572 253.197 19.4159 251.56 16.8403 248.969C13.7031 245.812 13.3352 244.137 14.9038 240.201C15.9689 237.512 18.1378 234.901 19.7451 234.355C21.3524 233.81 23.0759 233.81 23.6181 234.355C24.1603 234.901 25.4578 236.655 26.5229 238.252C27.588 239.85 31.9451 242.052 36.2055 243.123C41.376 244.429 48.7929 244.429 58.4754 243.123C66.4539 242.052 76.9305 240.298 81.7137 239.227C86.4969 238.155 90.002 236.401 89.4597 235.33C88.8981 234.2 95.4629 232.134 104.952 230.459C114.015 228.861 137.098 223.581 191.127 210Z" fill="#C29670"></path>
<path d="M282.131 223.647C274.626 223.647 266.366 225.781 258.918 228.411C251.47 231.04 238.413 236.604 229.902 240.796C221.39 244.988 214.001 248.418 213.459 248.418C212.917 248.418 212.492 247.561 212.492 246.513C212.492 245.465 210.751 244.188 208.623 243.654L204.754 242.702C178.485 249.161 172.933 249.752 170.902 248.418L168 246.513L176.705 243.654C181.483 242.092 203.245 235.652 225.066 229.364C246.886 223.076 267.758 216.654 271.492 215.073C275.225 213.491 280.003 211.795 282.131 211.262C285.033 210.538 286 211.262 286 214.12C286 216.216 285.13 219.207 282.131 223.647Z" fill="#9B1F1C"></path>
<path d="M55.4177 225.516C53.9176 225.516 53.4945 226.807 53.4945 228.405V231.295L55.4177 235.147C57.2063 238.711 56.7062 239 48.6866 239C42.7055 239 39.7438 238.114 39.0707 236.111C38.5322 234.512 41.1285 229.773 44.8402 225.516C48.552 221.278 54.1677 216.52 57.3409 214.921C62.4758 212.36 63.322 212.36 65.0336 214.921C66.3221 216.848 66.3221 217.483 65.0336 216.848C63.9759 216.308 63.5335 216.751 64.072 217.811C64.6105 218.87 64.1682 219.313 63.1104 218.774C62.0527 218.235 61.6103 218.678 62.1488 219.737C62.6873 220.797 61.8027 222.53 60.2257 223.59C58.3025 224.88 57.014 224.88 56.3793 223.59C55.7447 222.299 55.4177 222.299 55.4177 225.516Z" fill="#251009"></path>
<path d="M78.8173 218L81.7716 218.919C83.3866 219.433 85.1592 221.895 85.7107 224.431C86.5773 228.51 85.8288 229.226 78.8173 230.862C74.4843 231.872 70.0528 232.295 68.9695 231.78C67.8863 231.266 67 230.035 67 229.024C67 228.014 69.6589 225.129 78.8173 218Z" fill="#FCF9F5"></path>
<path d="M282 224C282 228.49 279.824 232.845 277.143 236.581L272.286 243.355C267.778 241.845 261.658 243.161 255.771 245.29C249.885 247.419 232.846 254.387 217.886 260.774C202.926 267.161 184.119 275 176.114 278.194L161.543 284L157.657 283.032C155.52 282.49 152.45 281.194 147.943 278.194V277.226C147.943 276.684 147.515 276.258 146 276.258L149.886 272.387C152.023 270.258 154.199 268.942 154.743 269.484C155.287 270.026 160.513 268.71 166.4 266.581C172.287 264.452 183.653 259.226 191.657 254.968C199.662 250.71 205.801 246.355 204.286 243.355L208.171 244.323C210.309 244.865 212.057 246.161 212.057 247.226C212.057 248.29 212.485 249.161 213.029 249.161C213.573 249.161 220.994 245.677 229.543 241.419C238.091 237.161 251.206 231.51 258.686 228.839C266.166 226.168 274.462 224 282 224Z" fill="#D0623A"></path>
<path d="M55 225C55 229.64 54.56 231 54 231H53V228C53 226.34 53.44 225 55 225Z" fill="#60433C"></path>
<path d="M272 242.649C270.495 248.636 264.416 255.588 257.526 261.962C250.637 268.335 240.64 275.713 235.333 278.378C230.026 281.043 220.474 284.519 214.105 286.103C207.737 287.687 197.316 289 190.947 289C184.579 289 175.451 287.687 170.684 286.103L162 283.206L176.474 277.412C184.425 274.226 203.105 266.404 217.965 260.03C232.825 253.657 249.749 246.704 255.596 244.58C261.444 242.456 267.523 241.142 272 242.649Z" fill="#A6201D"></path>
<path d="M204.769 243C206.283 246.014 200.152 250.389 192.159 254.667C184.166 258.944 172.817 264.194 166.938 266.333C161.06 268.472 155.841 269.794 155.298 269.25C154.755 268.706 152.582 270.028 150.448 272.167L146.568 276.056C148.081 276.056 148.508 276.483 148.508 277.028V278H147.538C146.994 278 146.568 277.572 146.568 276.056L142.688 275.083C140.554 274.539 134.869 270.164 130.077 265.361C121.463 256.728 121.405 256.592 126.197 255.639C128.874 255.094 139.351 252.917 167.908 246.889L170.818 248.833C172.855 250.194 178.423 249.592 204.769 243Z" fill="#CC603F"></path>
</svg><style>@media (prefers-color-scheme: light) { :root { filter: none; } }
@media (prefers-color-scheme: dark) { :root { filter: none; } }
</style></svg>