<svg xmlns="http://www.w3.org/2000/svg" width="53" height="63" fill="none"><path fill="#212121" d="M52.436 25.396c-.641-.166-1.305-.221-1.953-.348.055-.92.18-1.843.108-2.766-.046-2.437-.76-4.816-1.734-7.033-.17-.405-.426-.777-.529-1.206.632-4.423-.027-9.064-2.053-13.06-.249-.57-.807-1.097-1.477-.961-.906.24-1.685.792-2.456 1.305-2.033 1.42-3.733 3.252-5.31 5.149-3.641-1.02-7.577-1.045-11.209.029-.098.017-.237.095-.303-.021-1.799-2.16-3.907-4.081-6.307-5.553C18.648.61 18.072.24 17.41.178c-.476-.042-.9.283-1.107.692-.576 1.035-.94 2.168-1.285 3.296-.925 3.313-1.191 6.83-.614 10.227.082.31-.13.577-.229.853-1.467 3.353-1.96 7.127-1.314 10.737-.682.185-1.4.25-2.054.524-.465.238-.228 1.022.29.98.677-.124 1.318-.397 1.988-.55.076.243.16.483.215.73-.569.267-1.183.458-1.707.807-.395.335-.031 1.042.475.904.568-.221 1.082-.566 1.66-.77.119.235.242.468.378.694-.319.283-.712.46-1.065.695-.245.165-.585.292-.648.616-.093.366.322.746.674.581.556-.246 1.023-.652 1.558-.933.38.38.653.873 1.034 1.263 1.662 2.025 3.971 3.354 6.296 4.48-.837 1.97-2.438 3.461-3.783 5.083-1.358 1.566-2.664 3.208-3.597 5.07-1.624 3.125-2.273 6.865-1.302 10.293.528 1.866 1.73 3.577 3.436 4.54 1.677.955 3.594 1.365 5.486 1.634 2.068.26 4.154.437 6.24.356.683-.005 1.38-.056 2.018-.32.703-.244 1.227-.817 1.64-1.414.814-1.254.695-2.978-.165-4.178-1.024-1.483-3.078-1.95-4.724-1.342-2.043.702-3.384 2.565-4.337 4.407.16-2.36 1.748-4.666 4.092-5.293.036-1.117-.136-2.259-.626-3.27-.836-1.89-2.493-3.328-4.358-4.155 1.623.043 3.177.837 4.234 2.056 1.245 1.401 1.894 3.266 1.958 5.126 1.488-.188 3.056.356 4.077 1.461.462.484.8 1.07 1.055 1.687.498-.753 1.287-1.296 2.131-1.592.034-.584-.013-1.167-.03-1.75-.149-2.374-.07-4.88-1.163-7.063-1.059-2.188-3.068-3.731-4.145-5.909-.618-1.17-1.031-2.475-1.033-3.806 3.765.238 7.621-.068 11.187-1.368.118-.076.203.02.236.128.823 1.867 1.22 3.935 1.024 5.973-.286 3.202-2.478 6.226-5.518 7.333.307 2.054.39 4.13.42 6.204 1.528-.238 3.175.126 4.38 1.119 1.294 1.048 2.013 2.936 1.308 4.52 1.07.017 2.26-.252 2.942-1.144.736-.897.56-2.15.167-3.154-.439-1.118-1.402-1.765-2.404-2.35-.034-.02-.251-.12-.38-.192.05-.7.124-1.398.195-2.096.396-4.256 1.132-8.568.427-12.83-.205-1.436-.689-2.808-1.085-4.196 2.036-.962 3.945-2.257 5.458-3.938.635-.693 1.152-1.48 1.68-2.255.55.29 1.031.711 1.612.933.478.185.882-.524.5-.85-.494-.412-1.117-.636-1.637-1.012.048-.253.224-.487.283-.748.552.22 1.07.514 1.616.742.367.168.836-.229.698-.615-.066-.267-.34-.388-.568-.489-.48-.198-.955-.409-1.443-.586.064-.24.133-.477.177-.721.686.059 1.331.334 2.015.41.288.053.604-.176.603-.479.028-.3-.255-.512-.519-.57l.002.003ZM26.51 58.433c.5-.726 1.269-1.33 2.166-1.428a2.167 2.167 0 0 1 1.587.418c1.13.833 1.404 2.723.336 3.714-.638.59-1.57.502-2.372.492-.564-.019-1.133.014-1.694-.054-.445-.032-.734-.468-.765-.883-.065-.816.282-1.604.742-2.26Zm16.33-1.617c.286.25.553.521.788.819.322.405.662.913.615 1.456-.072.815-1.174 1.405-1.502.411-.323-.969-.287-2.003-.367-3.01.194.136.421.284.466.324ZM17.073 11.773c-.266-2.264-.234-4.59.353-6.804.082-.323.28-.669.635-.736.528-.106 1 .24 1.398.539 1.013.801 1.94 1.74 2.656 2.818-1.363.924-2.75 1.84-3.923 3.008-.387.378-.739.79-1.119 1.175Zm6.759 12.496c-1.306.502-2.875-.35-3.27-1.668-.523-1.429.498-3.17 2.008-3.392 1.272-.25 2.594.607 2.957 1.835.407 1.296-.38 2.84-1.695 3.225Zm1.275-8.302c-.27.091-.46.364-.763.382-.416.066-.71-.413-.634-.782.108-.614.692-1.055 1.289-1.135.721-.112 1.494.374 1.68 1.083.106.355-.125.833-.53.827-.413.066-.63-.472-1.042-.375Zm10.47 14.992c-1.608 1.16-3.734 1.31-5.636.997-1.622-.253-3.256-1.294-3.728-2.938-.418-1.488.236-3.117 1.377-4.104.996-.906 2.324-1.365 3.652-1.464 2.396-.186 5.041 1.202 5.746 3.6.441 1.447-.189 3.055-1.412 3.91Zm1.801-15.207c-.25.088-.395.364-.668.405-.388.13-.753-.295-.713-.663.048-.6.56-1.084 1.13-1.21.768-.21 1.645.305 1.826 1.08.088.343-.136.81-.536.782-.415.057-.623-.492-1.039-.394Zm4.779 7.507c-.555.645-1.425 1.043-2.282.915-1.091-.111-2.02-1.017-2.244-2.077-.33-1.387.7-2.93 2.127-3.108 1.099-.184 2.258.439 2.752 1.431.473.9.302 2.072-.353 2.839Zm3.416-11.753c-1.446-1.632-3.268-2.854-5.078-4.039.833-1.178 1.776-2.322 2.988-3.127.326-.193.736-.403 1.114-.224.34.132.465.514.56.834.567 2.127.72 4.375.416 6.556Z"/><path fill="#212121" d="M38.21 21.601c-.042-.95.704-1.888 1.661-2 .58-.063 1.231.114 1.616.569-.33.024-.687.142-.862.445-.321.471-.125 1.192.382 1.448.325.185.732.13 1.053-.037-.14.896-1.03 1.535-1.907 1.557-1.034-.016-1.927-.96-1.944-1.981Zm-16.211-1.513c.723-.472 1.795-.355 2.367.301-.633 0-1.096.68-.918 1.276.166.621.904.868 1.475.665-.248.853-1.08 1.482-1.97 1.466-1.149-.045-2.097-1.26-1.844-2.384a1.865 1.865 0 0 1 .89-1.324Zm8.51 4.832c.68-.232 1.444-.269 2.128-.031.338.131.657.478.565.864-.205.631-.765 1.039-1.155 1.548-.148.471.074 1.253.685 1.222.392-.002.495-.432.706-.672.343-.241.674.28.512.588-.303.99-1.76 1.196-2.375.389-.453.573-1.405.68-1.952.18-.27-.241-.527-.613-.393-.99.084-.274.54-.289.632-.016.126.294.4.653.766.498.495-.14.617-.722.53-1.165-.382-.498-.884-.924-1.13-1.515-.157-.372.124-.782.48-.9h.001ZM2.923 31.38c1.813-1.01 4.14-1.083 5.976-.085 1.798.867 3.016 2.671 3.43 4.593.284 1.397.189 2.853-.187 4.223-.471 1.721-1.282 3.32-1.87 5-.3.969-.537 2.008-.32 3.02a4.522 4.522 0 0 0 2.156 3.125c-.314 1.97-.227 4.023.474 5.905-1.998-.41-3.943-1.28-5.418-2.711-1.894-1.844-2.922-4.557-2.676-7.193.1-1.901.888-3.669 1.64-5.389.447-1.045.966-2.084 1.12-3.222.05-.515.006-1.08-.319-1.505-.26-.381-.817-.617-1.234-.347-.275.183-.278.538-.324.83-.128.843-.74 1.61-1.572 1.846-1.113.415-2.406-.098-3.09-1.03-.766-1.025-.863-2.42-.52-3.622.374-1.465 1.421-2.71 2.734-3.437Zm32.814 25.672c1.747-.703 3.954-.232 5.129 1.277.788.972.977 2.513.146 3.516-.562.716-1.508.957-2.38.98-2.099.063-4.216-.082-6.267-.553.817-.987 1.273-2.262 1.166-3.548.586-.721 1.317-1.36 2.206-1.672Zm1.456 1.115c-1.092.136-2.103.906-2.5 1.936-.203.466-.06 1.135.488 1.272 1.017.215 2.067.135 3.101.153.558-.045 1.2-.017 1.634-.434.4-.405.374-1.047.128-1.526-.518-1.023-1.736-1.558-2.851-1.4Z"/></svg>
