<svg xmlns="http://www.w3.org/2000/svg" width="203" height="174" fill="none"><path fill="#30140C" d="M21 0h1.5c.95 0 1.68 1.28 2 3.5.27 1.93.73 5.07 1 7 .42 2.92 1.33 4 5.5 6.5 2.75 1.65 5 3.45 5 4 0 .55-2.48 2.35-5.5 4-4.73 2.58-5.64 3.56-6.5 7-.55 2.2-1.45 5.12-2 6.5L21 41l-4.5-4.5C12.17 32.17 11.78 32 6 32c-5.73 0-6-.11-6-2.5 0-1.38.9-3.85 2-5.5s2-3.68 2-4.5c0-.82-.9-3.3-2-5.5S0 9.1 0 8c0-1.71.5-1.93 3.5-1.5 1.92.28 5.08.72 7 1 3.11.44 3.89.06 10.5-7.5Z"/><path fill="#2B0F06" d="m105 59 7 1c3.85.55 8.8 1.68 11 2.5 2.2.82 6.7 3.07 10 5 5.97 3.48 6.04 3.49 13 2.5 3.85-.55 10.15-1.22 14-1.5 3.85-.28 10.6-.05 15 .5s10.48 1.9 13.5 3c3.67 1.33 6.67 3.33 9 6 1.92 2.2 3.95 5.12 4.5 6.5.55 1.38 1 4.3 1 6.5s-.67 5.35-1.5 7c-.83 1.65-3.08 5.25-5 8s-7.1 7.7-11.5 11-12.05 8.02-17 10.5l-9 4.5-2 6.5c-1.2 3.89-3.8 8.91-6.5 12.5-2.48 3.3-6.75 7.8-9.5 10s-7.25 5.12-10 6.5-6.35 2.95-8 3.5c-1.65.55-6.15 1.45-10 2-4.67.67-9.33.67-14 0-3.85-.55-9.7-2.12-13-3.5-3.3-1.38-8.48-4.07-11.5-6L69 160l-7 1c-3.85.55-11.05.77-16 .5-4.95-.27-11.48-1.18-14.5-2-3.02-.82-7.52-3.07-10-5-2.48-1.93-5.4-5.07-6.5-7-1.27-2.22-2-5.33-2-8.5 0-3.33.83-6.67 2.5-10 1.38-2.75 4.52-7.02 7-9.5 2.48-2.48 6.98-6.3 10-8.5 3.02-2.2 8.88-6.02 13-8.5 7.14-4.29 7.69-4.88 11.5-12.5 2.77-5.54 6-10 10.5-14.5 3.78-3.78 9.01-7.76 12.5-9.5 3.3-1.65 7.8-3.45 10-4 2.2-.55 6.48-1.45 15-3Z"/><path fill="#F2A058" d="M120 69c0 2.32-1.8 4.57-4 6.5-2.2 1.93-6.7 4.62-10 6s-8.48 2.95-11.5 3.5c-3.02.55-7.52 1-10 1H80l.5-2c.27-1.1 1.17-4.25 3.5-12l2.5-1.5c1.38-.82 5.2-2.18 8.5-3 3.3-.82 8.02-1.5 10.5-1.5 2.48 0 6.75.68 14.5 3Z"/><path fill="#FCC57E" d="M120 69c2.33 0 3.9.68 5 1.5l2 1.5c-1.55 4.65-3.8 7.57-6 9.5-2.2 1.93-6.92 4.85-10.5 6.5-3.58 1.65-8.52 3.45-11 4-2.48.55-8.1 1.45-12.5 2l-8 1v-9h5.5c2.48 0 6.98-.45 10-1 3.02-.55 8.2-2.12 11.5-3.5 3.3-1.38 7.8-4.07 10-6 2.2-1.93 4-4.18 4-6.5Z"/><path fill="#65593D" d="M84 72c-2.33 7.75-3.23 10.9-3.5 12l-.5 2h-1l-2.5-.5c-1.38-.27-3.62-.73-7.5-1.5l5-5c2.75-2.75 6.12-5.45 10-7Z"/><path fill="#F2A159" d="M127 72c1.55 0 3.35 1.12 5 2.5l3 2.5c-3.88 6.2-6.58 9.57-8.5 11.5-1.92 1.93-6.2 4.85-9.5 6.5-3.3 1.65-9.83 4.12-14.5 5.5s-11.88 2.73-16 3l-7.5.5v-9l8-1c4.4-.55 10.02-1.45 12.5-2 2.48-.55 7.42-2.35 11-4s8.3-4.57 10.5-6.5c2.2-1.93 4.45-4.85 6-9.5Z"/><path fill="#FAAA3F" d="m20 136 1.5 1c.83.55 1.73.77 2 .5s.5.18.5 1c0 .82 1.12 2.4 2.5 3.5s5.65 2.68 9.5 3.5c3.85.82 11.73 1.5 17.5 1.5s15-.68 20.5-1.5 14.27-2.4 19.5-3.5 14-3.35 19.5-5 15.62-5.25 22.5-8c6.88-2.75 15.2-6.35 18.5-8 3.3-1.65 9.15-5.02 13-7.5 3.85-2.48 8.58-6.3 10.5-8.5s4.62-6.48 6-9.5c1.38-3.02 2.73-7.52 3-10 .27-2.48.27-4.27 0-4-.27.27-1.62 3.43-3 7s-3.85 8.3-5.5 10.5c-1.65 2.2-4.35 5.12-6 6.5-1.65 1.38-5.48 4.3-8.5 6.5-3.02 2.2-11.12 6.48-18 9.5-6.88 3.02-19.25 7.75-27.5 10.5s-17.92 5.68-21.5 6.5c-3.58.82-11.45 2.4-17.5 3.5-7.92 1.44-15.33 2-26.5 2-13.17 0-16.25-.3-20.5-2-4.78-1.91-5.04-2.22-6-7-.55-2.75-1.45-5-3-5 0-1.55 2.02-4.02 4.5-6.5 2.48-2.48 6.98-6.3 10-8.5 3.02-2.2 7.52-5.12 10-6.5L52 106l-.5 3c-.33 1.97-2.73 5.23-7 9.5-4.89 4.89-6.62 7.37-7 10-.4 2.8 0 4 2 6 1.38 1.38 4.3 2.95 6.5 3.5 2.2.55 8.27.77 13.5.5s13.1-1.18 17.5-2c4.4-.82 14.08-3.07 21.5-5 7.42-1.93 18.67-5.52 25-8 6.33-2.48 14.65-6.07 18.5-8 3.85-1.93 10.6-5.75 15-8.5s9.58-6.8 11.5-9c2.57-2.94 3.5-4.93 3.5-7.5 0-1.93-.67-4.18-1.5-5-.83-.82-2.85-2.18-4.5-3-1.65-.82-6.6-1.73-11-2-5.57-.35-8.3-.96-9-2-.67-1-.67-1.67 0-2 .55-.28 7.3-.72 15-1 10.5-.38 15.5-.12 20 1 3.3.82 7.58 2.4 9.5 3.5 2.02 1.15 4.14 3.48 5 5.5.86 2 1.29 5 1 7-.27 1.93-1.85 5.52-3.5 8-1.65 2.48-4.8 6.07-7 8-2.2 1.93-7.15 5.52-11 8-3.85 2.48-11.95 6.98-18 10-6.05 3.02-15.5 7.3-21 9.5s-14.95 5.57-21 7.5c-6.05 1.93-16.17 4.85-22.5 6.5-6.33 1.65-16.45 3.68-22.5 4.5-6.05.82-14.83 1.5-19.5 1.5s-10.98-.68-14-1.5c-3.02-.82-7.52-2.62-10-4-3-1.67-5-3.67-6-6-.83-1.93-1.27-4.62-1-6l.5-2.5Z"/><path fill="#FCC680" d="M135 77c3.1 2.32 4 3.23 4 3.5v.5c-1.55 3.1-3.12 5.57-4.5 7.5L132 92c-3.95 4.74-8.99 7.89-14.5 10.5-5.23 2.48-13.33 5.4-18 6.5l-8.5 2c-3.1.77-5.35 1-7 1h-3l-1-2.5c-.55-1.38-1-3.18-1-5.5l7.5-.5c4.12-.27 11.33-1.62 16-3s11.2-3.85 14.5-5.5c3.3-1.65 7.58-4.57 9.5-6.5 1.92-1.93 4.62-5.3 8.5-11.5Z"/><path fill="#F9BD7A" d="M139 81c5.42 5.43 7 7.45 7 8v1c-3.33 3.33-4.17 5.83-4.5 9.5l-.5 5.5c-12.4 6.2-21.4 10.02-28 12.5-6.6 2.48-13.35 4.5-15 4.5h-3v-1.5c0-.82.23-2.18 1-4.5l5-1c2.75-.55 8.83-2.57 13.5-4.5 4.67-1.93 11.2-5.07 14.5-7 3.3-1.93 6.67-4.4 7.5-5.5 1.39-1.85 1.28-2.15-4.5-6l2.5-3.5c1.38-1.93 2.95-4.4 4.5-7.5Z"/><path fill="#FCE8BC" d="M20 136v-1c0-.55.67-1.9 3-5 1.55 0 2.45 2.25 3 5 .96 4.78 1.22 5.09 6 7 4.25 1.7 7.33 2 20.5 2 11.17 0 18.58-.56 26.5-2 6.05-1.1 13.92-2.68 17.5-3.5 3.58-.82 13.25-3.75 21.5-6.5s20.62-7.48 27.5-10.5c6.88-3.02 14.98-7.3 18-9.5 3.02-2.2 6.85-5.12 8.5-6.5 1.65-1.38 4.35-4.3 6-6.5 1.65-2.2 4.12-6.93 5.5-10.5 1.38-3.57 2.73-6.73 3-7 .27-.27.27 1.52 0 4s-1.62 6.98-3 10c-1.38 3.02-4.08 7.3-6 9.5s-6.65 6.02-10.5 8.5c-3.85 2.48-9.7 5.85-13 7.5-3.3 1.65-11.62 5.25-18.5 8-6.88 2.75-17 6.35-22.5 8-5.5 1.65-14.27 3.9-19.5 5s-14 2.68-19.5 3.5c-5.5.82-14.73 1.5-20.5 1.5s-13.65-.68-17.5-1.5c-3.85-.82-8.12-2.4-9.5-3.5-1.38-1.1-2.5-2.68-2.5-3.5 0-.82-.23-1.27-.5-1s-1.17.05-2-.5l-1.5-1Z"/><path fill="#847B5F" d="M69 84c3.88.77 6.12 1.23 7.5 1.5l2.5.5v9l-4.5-.5c-2.48-.27-5.85-.95-10.5-2.5v-.5c0-.27 1.12-2.07 5-7.5Z"/><path fill="#F9F9F7" d="m154 88 6 .5c3.3.27 6.23.95 6.5 1.5.27.55-.17 2.12-1 3.5s-2.62 3.18-4 4c-1.67 1-2.83 1.17-3.5.5-.55-.55-1.67-3.02-4-10Z"/><path fill="#605A45" d="M146 90c4.76 7.94 5.79 10.82 5.5 12-.29 1.14-2.64 3.07-5.5 4.5l-5 2.5v-4l.5-5.5c.33-3.67 1.17-6.17 4.5-9.5Z"/><path fill="#62573F" d="M64 92c4.65 1.55 8.02 2.23 10.5 2.5l4.5.5v7c-3.1 1.55-5.8 2-8 2s-5.58-.45-7.5-1l-3.5-1 1.5-5c.83-2.75 1.73-5 2.5-5Z"/><path fill="#F1A25B" d="M132 92c5.78 3.85 5.89 4.15 4.5 6-.83 1.1-4.2 3.57-7.5 5.5-3.3 1.93-9.83 5.07-14.5 7-4.67 1.93-10.75 3.95-13.5 4.5l-5 1v-.5c0-.27-.23-.5-1-.5v-.5c0-.27-.9-1.18-4-3.5l8.5-2c4.67-1.1 12.77-4.02 18-6.5 5.51-2.61 10.55-5.76 14.5-10.5Z"/><path fill="#7F785D" d="m60 102 3.5 1c1.92.55 5.3 1 7.5 1s4.9-.45 8-2v2c0 2.32.45 4.12 1 5.5l1 2.5c-1.55.77-5.38 1-9.5 1s-8.62-.23-10-.5L59 112v-3.5c0-1.93.23-4.18 1-6.5Z"/><path fill="#EEA15C" d="M141 105v4c-3.88 3.1-9.95 6.02-16 8.5-6.05 2.48-15.5 5.62-21 7L94 127v-1.5c0-.82.23-1.73 1-2.5v-1h3c1.65 0 8.4-2.02 15-4.5s15.6-6.3 28-12.5Z"/><path fill="#5F513B" d="M91 111c3.1 2.32 4 3.23 4 3.5v.5c-1.55 1.55-7.17 2.45-13.5 3-6.33.55-14.2.77-17.5.5l-6-.5v-3c0-1.65.23-3 1-3l2.5.5c1.38.27 5.88.5 10 .5s7.95-.23 9.5-1h3c1.65 0 3.9-.23 7-1Z"/><path fill="#7E7558" d="M95 115c.77 0 1 .23 1 .5v.5c-.77 2.32-1 3.68-1 4.5v2.5H59v-2c0-1.1-.23-2.23-1-3l6 .5c3.3.27 11.17.05 17.5-.5s11.95-1.45 13.5-3Z"/><path fill="#685E45" d="M95 123c-.77.77-1 1.68-1 2.5v1.5c-11.62 3.1-15.45 4-16 4h-1l-1-.5c-.55-.27-.77-.95-.5-1.5.3-.61-.68-.8-2.5-.5-1.65.27-5.02.5-12 .5l-1-2.5c-.55-1.38-1-2.73-1-3.5h36Z"/><path fill="#FAF8F8" d="M49 123h1.5c.96 0 1.86 1.61 2.5 4.5.55 2.48 1 4.95 1 5.5 0 .57-1.5.79-3.5.5-1.92-.27-4.4-.95-5.5-1.5-1.14-.57-1.79-1.64-1.5-2.5.27-.82 1.62-2.62 5.5-6.5Z"/><path fill="#584D35" d="m77 131-4 1c-2.2.55-5.35 1-7 1-2 0-3.33-.67-5-4 6.98 0 10.35-.23 12-.5 1.82-.3 2.8-.11 2.5.5-.27.55-.05 1.23.5 1.5l1 .5Z"/><path fill="#5F5741" d="m132 158 .5-1c.27-.55.05-1.45-.5-2s-1.45-1-3-1h-.5c-.27 0-.5-.23-.5-1l5-1.5c2.75-.82 5-1.73 5-2s-.67-.5-3-.5l1-2c.67-1.33.67-2.33-1-4 10.08-4.65 13.45-6 14-6 .57 0 .36 1.5-.5 3.5-.83 1.93-3.08 5.52-5 8-1.92 2.48-5.3 5.62-7.5 7l-4 2.5Z"/><path fill="#594F3A" d="M135 143c1.67 1.67 1.67 2.67 1 4l-1 2c-26.35 8.52-34.23 11-34.5 11h-.5c-3.1.77-4.67 1.45-5.5 2-.83.55-1.27 1.45-1 2l.5 1-4.5-1.5c-2.48-.82-4.95-1.95-5.5-2.5-.67-.67-.33-1 1-1 1.1 0 7.62-2.02 14.5-4.5s17.67-6.3 35.5-12.5Z"/><path fill="#6F6851" d="M135 149c2.33 0 3 .23 3 .5s-2.25 1.18-5 2l-5 1.5c-.77.77-1.23 1-1.5 1h-.5c-19.82 6.9-23.41 7.72-24.5 7l-1.5-1h.5c.27 0 8.15-2.48 34.5-11Z"/><path fill="#61573C" d="M128 153c0 .77.23 1 .5 1h.5c0 .77-.23 1-.5 1H127c-.55 0-1-.23-1-1h.5c.27 0 .73-.23 1.5-1Z"/><path fill="#655A41" d="M126 154c0 .77.45 1 1 1h1c-2.57 2.57-2.71 3.43-2 4.5l1 1.5c-.77 0-1 .23-1 .5v.5c-10.96 3.65-13.74 3.91-22 3.5l-10-.5-.5-1c-.27-.55.17-1.45 1-2s2.4-1.23 5.5-2l1.5 1c1.09.72 4.68-.1 24.5-7Z"/><path fill="#635A40" d="M129 154c1.55 0 2.45.45 3 1 .55.55.77 1.45.5 2l-.5 1c-2.33 2.32-3.45 3-4 3h-1c0 .77-.23 1-.5 1h-.5v-.5c0-.27.23-.5 1-.5l-1-1.5c-.71-1.07-.57-1.93 2-4.5h.5c.27 0 .5-.23.5-1Z"/></svg>
