<svg xmlns="http://www.w3.org/2000/svg" width="32" height="32" fill="none">
  <path fill="#30140C"
    d="M22.805 24.39c4.3-.48 8.042-2.95 8.511-5.206.743-3.556.683-8.678.683-8.678 0-6.94-4.877-8.976-4.877-8.976C24.665.476 20.443.034 16.057 0h-.107C11.562.034 7.343.476 4.885 1.53c0 0-4.874 2.034-4.874 8.976L.006 11.83c-.008 1.28-.014 2.7.024 4.182.177 6.789 1.335 13.48 8.064 15.14 3.101.767 5.766.927 7.912.817 3.889-.2 6.073-1.294 6.073-1.294l-.128-2.634s-2.78.82-5.902.72c-3.094-.1-6.358-.312-6.859-3.856a7.51 7.51 0 0 1-.07-.992s3.038.692 6.886.856c2.353.1 4.559-.128 6.8-.378h-.002Zm3.44-4.94h-3.569v-8.16c0-1.718-.776-2.59-2.327-2.59-1.715 0-2.575 1.034-2.575 3.082v4.466h-3.55V11.78c0-2.048-.86-3.082-2.574-3.082-1.551 0-2.328.872-2.328 2.592v8.159H5.753v-8.405c0-1.717.47-3.081 1.408-4.092.973-1.01 2.245-1.528 3.825-1.528 1.826 0 3.209.656 4.124 1.966L16 8.78l.889-1.39c.915-1.31 2.297-1.966 4.126-1.966 1.578 0 2.85.518 3.82 1.528.942 1.01 1.412 2.374 1.41 4.092v8.407Z" />
</svg>
